<?xml version="1.0" encoding="UTF-8"?>
<svg width="17px" height="17px" viewBox="0 0 17 17" version="1.1" xmlns="http://www.w3.org/2000/svg" xmlns:xlink="http://www.w3.org/1999/xlink">
    <title>🎨 Checkbox Color</title>
    <defs>
        <path d="M12.8208389,-5.95869952e-16 C14.158117,3.46217602e-16 14.6430463,0.139238417 15.1319352,0.400699056 C15.6208241,0.662159695 16.004507,1.04584256 16.2659676,1.53473144 C16.5274282,2.02362033 16.6666667,2.50854969 16.6666667,3.8458278 L16.6666667,12.8208389 C16.6666667,14.158117 16.5274282,14.6430463 16.2659676,15.1319352 C16.004507,15.6208241 15.6208241,16.004507 15.1319352,16.2659676 C14.6430463,16.5274282 14.158117,16.6666667 12.8208389,16.6666667 L3.8458278,16.6666667 C2.50854969,16.6666667 2.02362033,16.5274282 1.53473144,16.2659676 C1.04584256,16.004507 0.662159695,15.6208241 0.400699056,15.1319352 C0.139238417,14.6430463 2.78433085e-16,14.158117 -4.7920703e-16,12.8208389 L1.03584031e-16,3.8458278 C-6.01853049e-17,2.50854969 0.139238417,2.02362033 0.400699056,1.53473144 C0.662159695,1.04584256 1.04584256,0.662159695 1.53473144,0.400699056 C2.02362033,0.139238417 2.50854969,9.02779573e-17 3.8458278,-1.55376046e-16 L12.8208389,-5.95869952e-16 Z M12.2736302,5.66074435 C11.9481933,5.33530744 11.4205558,5.33530744 11.0951189,5.66074435 L11.0951189,5.66074435 L6.68437455,10.0714887 L5.17258898,8.55970313 C4.84715207,8.23426622 4.31951459,8.23426622 3.99407768,8.55970313 C3.66864077,8.88514004 3.66864077,9.41277753 3.99407768,9.73821444 L3.99407768,9.73821444 L6.0951189,11.8392557 C6.42055581,12.1646926 6.94819329,12.1646926 7.2736302,11.8392557 L7.2736302,11.8392557 L12.2736302,6.83925565 C12.5990671,6.51381874 12.5990671,5.98618126 12.2736302,5.66074435 Z" id="path-1"></path>
    </defs>
    <g id="Page-1" stroke="none" stroke-width="1" fill="none" fill-rule="evenodd">
        <g id="sign-in" transform="translate(-892.000000, -576.000000)">
            <g id="Icon-/-Right-arrow" transform="translate(892.000000, 576.000000)">
                <mask id="mask-2" fill="white">
                    <use xlink:href="#path-1"></use>
                </mask>
                <use id="🎨-Checkbox-Color" fill="#776843" xlink:href="#path-1"></use>
            </g>
        </g>
    </g>
</svg>