<?xml version="1.0" encoding="UTF-8"?>
<svg width="9px" height="17px" viewBox="0 0 9 17" version="1.1" xmlns="http://www.w3.org/2000/svg" xmlns:xlink="http://www.w3.org/1999/xlink">
    <title>Facebook</title>
    <g id="Page-1" stroke="none" stroke-width="1" fill="none" fill-rule="evenodd" opacity="0.900000036">
        <g id="Başqasının-profili-Copy" transform="translate(-323.000000, -593.000000)" fill="#858585" fill-rule="nonzero">
            <g id="Group-52" transform="translate(110.000000, 360.000000)">
                <g id="Group-42" transform="translate(212.000000, 94.000000)">
                    <g id="Group-13" transform="translate(0.000000, 138.000000)">
                        <g id="Group-61" transform="translate(0.875000, 0.875000)">
                            <path d="M2.01626628,3.2905477 C2.01626628,3.70245386 2.01626628,5.54096371 2.01626628,5.54096371 L0.125,5.54096371 L0.125,8.29278114 L2.01626628,8.29278114 L2.01626628,16.4702148 L5.9013287,16.4702148 L5.9013287,8.29300915 L8.50838598,8.29300915 C8.50838598,8.29300915 8.7525483,6.97353375 8.87090229,5.53081712 C8.53157726,5.53081712 5.91601942,5.53081712 5.91601942,5.53081712 C5.91601942,5.53081712 5.91601942,3.9298972 5.91601942,3.64928874 C5.91601942,3.36807225 6.33960901,2.98979805 6.75827264,2.98979805 C7.17615159,2.98979805 8.0581177,2.98979805 8.875,2.98979805 C8.875,2.61513408 8.875,1.32058814 8.875,0.125 C7.78448675,0.125 6.54384049,0.125 5.99697093,0.125 C1.92023171,0.124809989 2.01626628,2.87936358 2.01626628,3.2905477 Z" id="Facebook"></path>
                        </g>
                    </g>
                </g>
            </g>
        </g>
    </g>
</svg>