<?xml version="1.0" encoding="UTF-8"?>
<svg width="16px" height="16px" viewBox="0 0 16 16" version="1.1" xmlns="http://www.w3.org/2000/svg" xmlns:xlink="http://www.w3.org/1999/xlink">
    <title>Group 54</title>
    <g id="Page-1" stroke="none" stroke-width="1" fill="none" fill-rule="evenodd" opacity="0.900000036">
        <g id="Başqasının-profili-Copy" transform="translate(-364.000000, -593.000000)" fill-rule="nonzero">
            <g id="Group-52" transform="translate(110.000000, 360.000000)">
                <g id="Group-42" transform="translate(212.000000, 94.000000)">
                    <g id="Group-13" transform="translate(0.000000, 138.000000)">
                        <g id="Group-56" transform="translate(42.000000, 1.000000)">
                            <path d="M11.4866177,3.55271368e-15 L4.26338182,3.55271368e-15 C1.91251367,3.55271368e-15 3.55271368e-15,1.91251367 3.55271368e-15,4.26338182 L3.55271368e-15,11.4867378 C3.55271368e-15,13.8374858 1.91251367,15.7499995 4.26338182,15.7499995 L11.4867378,15.7499995 C13.8374858,15.7499995 15.7499995,13.8374858 15.7499995,11.4867378 L15.7499995,4.26338182 C15.7499995,1.91251367 13.8374858,3.55271368e-15 11.4866177,3.55271368e-15 Z M7.87499975,12.1815201 C5.50033935,12.1815201 3.56847942,10.2496602 3.56847942,7.87499975 C3.56847942,5.50033935 5.50033935,3.56847942 7.87499975,3.56847942 C10.2496602,3.56847942 12.1815201,5.50033935 12.1815201,7.87499975 C12.1815201,10.2496602 10.2496602,12.1815201 7.87499975,12.1815201 L7.87499975,12.1815201 Z M12.2844997,4.58409676 C11.5827481,4.58409676 11.011974,4.01332271 11.011974,3.31157103 C11.011974,2.60981934 11.5827481,2.03892511 12.2844997,2.03892511 C12.9862514,2.03892511 13.5571457,2.60981934 13.5571457,3.31157103 C13.5571457,4.01332271 12.9862514,4.58409676 12.2844997,4.58409676 Z" id="Shape" fill="#858585"></path>
                            <path d="M7.87499975,4.4918116 C6.00958996,4.4918116 4.4918116,6.00946981 4.4918116,7.87499975 C4.4918116,9.74040955 6.00958996,11.2581879 7.87499975,11.2581879 C9.7405297,11.2581879 11.2581879,9.74040955 11.2581879,7.87499975 C11.2581879,6.00946981 9.7405297,4.4918116 7.87499975,4.4918116 Z" id="Path" fill="#858585"></path>
                            <path d="M12.2844997,2.96237745 C12.0919987,2.96237745 11.9353062,3.11906995 11.9353062,3.31157103 C11.9353062,3.50407207 12.0919987,3.66076457 12.2844997,3.66076457 C12.477121,3.66076457 12.6338135,3.50419223 12.6338135,3.31157103 C12.6338135,3.11894979 12.477121,2.96237745 12.2844997,2.96237745 Z" id="Path" fill="#666666"></path>
                        </g>
                    </g>
                </g>
            </g>
        </g>
    </g>
</svg>