<?xml version="1.0" encoding="UTF-8"?>
<svg width="24px" height="26px" viewBox="0 0 24 26" version="1.1" xmlns="http://www.w3.org/2000/svg" xmlns:xlink="http://www.w3.org/1999/xlink">
    <title>Group 9 Copy</title>
    <g id="Page-1" stroke="none" stroke-width="1" fill="none" fill-rule="evenodd">
        <g id="sign-up" transform="translate(-70.000000, -847.000000)" fill="#FFFFFF" fill-rule="nonzero">
            <g id="Group-9-Copy" transform="translate(82.000000, 860.000000) rotate(-180.000000) translate(-82.000000, -860.000000) translate(70.000000, 847.000000)">
                <path d="M0.0279164086,6.70946446 C-0.566955386,-0.100791947 8.5202241,-0.962330409 10.592019,4.41202857 C11.4330446,7.38638754 11.043301,9.21202857 10.6330446,11.4889516 C9.95612154,15.2838234 7.96637795,21.0069004 0.274070255,25.2120286 C6.57150615,16.2889516 0.909967691,13.5812593 0.0279164086,6.70946446 Z" id="Path-Copy"></path>
                <path d="M12.6638138,5.80690036 C12.068942,-1.00335605 21.1561215,-1.88540733 23.2279164,3.48895164 C24.068942,6.46331062 23.6791985,8.28895164 23.268942,10.5658747 C22.592019,14.3607465 20.6227882,20.0838234 12.9099677,24.2889516 C19.1868908,15.3863875 13.5253523,12.6581824 12.6638138,5.80690036 Z" id="Path-Copy-2"></path>
            </g>
        </g>
    </g>
</svg>