<?xml version="1.0" encoding="UTF-8"?>
<svg width="18px" height="31px" viewBox="0 0 18 31" version="1.1" xmlns="http://www.w3.org/2000/svg" xmlns:xlink="http://www.w3.org/1999/xlink">
    <title>Group 19</title>
    <g id="Page-1" stroke="none" stroke-width="1" fill="none" fill-rule="evenodd">
        <g id="Başqasının-profili-Copy" transform="translate(-126.000000, -1091.000000)" fill-rule="nonzero" stroke="#929292" stroke-width="2">
            <g id="Group-63" transform="translate(110.000000, 648.000000)">
                <g id="Group-19" transform="translate(17.000000, 444.000000)">
                    <path d="M7.76,28.8000016 C7.94999124,28.8000016 8.1094483,28.6507971 8.129824,28.4539465 L9.3740032,16.4363652 L6.1459968,16.4363652 L7.390176,28.4539465 C7.4105517,28.6507971 7.57000876,28.8000016 7.76,28.8000016 L7.76,28.8000016 Z" id="Path"></path>
                    <path d="M15.52,15.1420528 C15.52,13.6107248 13.6386144,12.369336 12.1072864,12.369336 L11.504,12.369336 L11.504,1.94933601 L12.225328,1.94933601 C12.5739637,1.94996772 12.896387,1.76433548 13.0708875,1.46251293 C13.245388,1.16069039 13.245388,0.788647225 13.0708875,0.486824681 C12.896387,0.185002136 12.5739637,-0.000630104456 12.225328,-2.17603713e-13 L3.2946688,-2.17603713e-13 C2.94603308,-0.000630104456 2.62360978,0.185002136 2.4491093,0.486824681 C2.27460883,0.788647225 2.27460883,1.16069039 2.4491093,1.46251293 C2.62360978,1.76433548 2.94603308,1.94996772 3.2946688,1.94933601 L4.016,1.94933601 L4.016,12.369336 L3.4127136,12.369336 C1.8813856,12.369336 2.18491891e-13,13.6107248 2.18491891e-13,15.1420528 L2.18491891e-13,15.469336 L15.52,15.469336 L15.52,15.1420528 Z" id="Path"></path>
                </g>
            </g>
        </g>
    </g>
</svg>