<?xml version="1.0" encoding="UTF-8"?>
<svg width="18px" height="28px" viewBox="0 0 18 28" version="1.1" xmlns="http://www.w3.org/2000/svg" xmlns:xlink="http://www.w3.org/1999/xlink">
    <title>Group 17</title>
    <g id="Page-1" stroke="none" stroke-width="1" fill="none" fill-rule="evenodd" stroke-linecap="round" stroke-linejoin="round">
        <g id="Başqasının-profili-Copy" transform="translate(-126.000000, -824.000000)" stroke="#929292" stroke-width="2">
            <g id="Group-63" transform="translate(110.000000, 648.000000)">
                <g id="Group-17" transform="translate(17.000000, 177.000000)">
                    <path d="M8,0 C6.10645229,0 4.57142857,1.53502371 4.57142857,3.42857143 L4.57142857,12.5714286 C4.57142857,14.4649763 6.10645229,16 8,16 C9.89354771,16 11.4285714,14.4649763 11.4285714,12.5714286 L11.4285714,3.42857143 C11.4285714,1.53502371 9.89354771,0 8,0 Z" id="Path"></path>
                    <path d="M16,10.2857143 L16,12.5714286 C16,16.9897065 12.418278,20.5714285 8,20.5714285 C3.58172205,20.5714285 0,16.9897065 0,12.5714286 L0,10.2857143" id="Path"></path>
                    <line x1="8" y1="20.5714286" x2="8" y2="25.1428571" id="Path"></line>
                    <line x1="3.42857143" y1="25.1428571" x2="12.5714286" y2="25.1428571" id="Path"></line>
                </g>
            </g>
        </g>
    </g>
</svg>