<?xml version="1.0" encoding="UTF-8"?>
<svg width="22px" height="22px" viewBox="0 0 22 22" version="1.1" xmlns="http://www.w3.org/2000/svg" xmlns:xlink="http://www.w3.org/1999/xlink">
    <title>Path</title>
    <g id="Page-1" stroke="none" stroke-width="1" fill="none" fill-rule="evenodd" stroke-linecap="round" stroke-linejoin="round">
        <g id="Başqasının-profili-Copy" transform="translate(-124.000000, -1026.000000)" stroke="#929292" stroke-width="2">
            <g id="Group-63" transform="translate(110.000000, 648.000000)">
                <g id="Group-48" transform="translate(15.000000, 379.000000)">
                    <path d="M20.0000317,9.4444761 C20.0038236,10.9109959 19.6611876,12.3576812 19,13.6666983 C17.4010657,16.8659514 14.1321195,18.8875366 10.5555556,18.8889205 C9.08903576,18.8927442 7.64235047,18.5501082 6.33333333,17.8889205 L6.75015599e-14,20.0000317 L2.11111111,13.6666983 C1.44992349,12.3576812 1.1072875,10.9109959 1.11111111,9.4444761 C1.11249506,5.8679122 3.13408024,2.59896595 6.33333333,1.00003165 C7.64235047,0.338844031 9.08903576,-0.00379196012 10.5555556,-3.87245791e-13 L11.1111111,-3.87245791e-13 C15.9064549,0.264586866 19.7354448,4.09357674 20.0000317,8.88892054 L20.0000317,9.4444761 L20.0000317,9.4444761 Z" id="Path"></path>
                </g>
            </g>
        </g>
    </g>
</svg>