<?xml version="1.0" encoding="UTF-8"?>
<svg width="24px" height="22px" viewBox="0 0 24 22" version="1.1" xmlns="http://www.w3.org/2000/svg" xmlns:xlink="http://www.w3.org/1999/xlink">
    <title>Group 15</title>
    <g id="Page-1" stroke="none" stroke-width="1" fill="none" fill-rule="evenodd" stroke-linecap="round" stroke-linejoin="round">
        <g id="Başqasının-profili-Copy" transform="translate(-123.000000, -760.000000)" stroke="#929292" stroke-width="2">
            <g id="Group-63" transform="translate(110.000000, 648.000000)">
                <g id="Group-31" transform="translate(14.000000, 112.000000)">
                    <g id="Group-15" transform="translate(0.000000, 1.000000)">
                        <path d="M0,-3.64153152e-13 L6.6,-3.64153152e-13 C9.0300529,-3.64153152e-13 11,1.9699471 11,4.4 L11,19.8 C11,17.9774603 9.52253967,16.5 7.7,16.5 L0,16.5 L0,-3.64153152e-13 Z" id="Path"></path>
                        <path d="M22,-3.64153152e-13 L15.4,-3.64153152e-13 C12.9699471,-3.64153152e-13 11,1.9699471 11,4.4 L11,19.8 C11,17.9774603 12.4774603,16.5 14.3,16.5 L22,16.5 L22,-3.64153152e-13 Z" id="Path"></path>
                    </g>
                </g>
            </g>
        </g>
    </g>
</svg>