<?xml version="1.0" encoding="UTF-8"?>
<svg width="23px" height="17px" viewBox="0 0 23 17" version="1.1" xmlns="http://www.w3.org/2000/svg" xmlns:xlink="http://www.w3.org/1999/xlink">
    <title>Group 58</title>
    <g id="Page-1" stroke="none" stroke-width="1" fill="none" fill-rule="evenodd" opacity="0.900000036">
        <g id="Başqasının-profili-Copy" transform="translate(-412.000000, -593.000000)" fill="#777777" fill-rule="nonzero">
            <g id="Group-52" transform="translate(110.000000, 360.000000)">
                <g id="Group-42" transform="translate(212.000000, 94.000000)">
                    <g id="Group-13" transform="translate(0.000000, 138.000000)">
                        <g id="Group-59" transform="translate(90.000000, 1.000000)">
                            <path d="M20.3257111,7.39181419 C21.5893963,7.28187392 22.4465701,6.67607163 22.7764454,5.85408475 C22.3206043,6.14937337 20.9055824,6.47130582 20.1241032,6.16470874 C20.0858112,5.9710859 20.0430206,5.78717178 20.0010145,5.62113054 C19.4055545,3.31541899 17.366772,1.4578533 15.2305335,1.68225721 C15.4033702,1.6086695 15.5786655,1.5401568 15.7534377,1.47864983 C15.9885772,1.38983708 17.3681844,1.15313177 17.1509354,0.639617518 C16.9678457,0.187941214 15.2822694,0.980967417 14.9648965,1.08461907 C15.3838581,0.918467508 16.0767219,0.632666955 16.1509517,0.125 C15.5090914,0.21783967 14.8790012,0.537841409 14.3921395,1.00314302 C14.5679057,0.80361772 14.7012473,0.560458322 14.7295477,0.298764089 C13.0176065,1.45206117 12.0175705,3.77719016 11.2082616,6.03264803 C10.5727834,5.38321165 10.0095471,4.8717936 9.5042718,4.58781343 C8.08679121,3.78623693 6.39195585,2.94990761 3.73145301,1.90842634 C3.649795,2.83665756 4.16678805,4.07087905 5.65651061,4.89165235 C5.3337496,4.84608754 4.74352066,4.94775333 4.27146306,5.06696101 C4.46370726,6.13034207 5.09154806,7.00644405 6.79124837,7.43009745 C6.01447717,7.48415739 5.61303988,7.67055385 5.24921446,8.07230745 C5.6029961,8.81188051 6.46629028,9.68230069 8.01925726,9.50362708 C6.29266891,10.2883788 7.31525114,11.7416534 8.72017701,11.5249172 C6.3234803,14.1354054 2.5448224,13.9435478 0.375,11.760133 C6.04026666,19.9006772 18.3552472,16.5744464 20.1904863,8.73354877 C21.56549,8.74590532 22.373805,8.2312878 22.875,7.66393426 C22.0827969,7.8057037 20.9345629,7.65919023 20.3257111,7.39181419 Z" id="Twitter__x28_alt_x29_"></path>
                        </g>
                    </g>
                </g>
            </g>
        </g>
    </g>
</svg>