<?xml version="1.0" encoding="UTF-8"?>
<svg width="38px" height="38px" viewBox="0 0 38 38" version="1.1" xmlns="http://www.w3.org/2000/svg" xmlns:xlink="http://www.w3.org/1999/xlink">
    <title>Group 53</title>
    <g id="Page-1" stroke="none" stroke-width="1" fill="none" fill-rule="evenodd">
        <g id="home-copy-2" transform="translate(-1202.000000, -4790.000000)">
            <g id="Group-99" transform="translate(0.000000, 4735.000000)">
                <g id="Group-6" transform="translate(1203.000000, 56.000000)">
                    <g id="Group-61" transform="translate(0.807692, 0.807692)">
                        <path d="M15.7073227,13.1912748 C15.7073227,13.5714959 15.7073227,15.2685819 15.7073227,15.2685819 L13.9615385,15.2685819 L13.9615385,17.8087211 L15.7073227,17.8087211 L15.7073227,25.3571214 L19.2935342,25.3571214 L19.2935342,17.8089315 L21.7000486,17.8089315 C21.7000486,17.8089315 21.9254292,16.5909542 22.034679,15.2592158 C21.7214559,15.2592158 19.3070948,15.2592158 19.3070948,15.2592158 C19.3070948,15.2592158 19.3070948,13.7814436 19.3070948,13.5224204 C19.3070948,13.2628359 19.6981006,12.9136597 20.0845594,12.9136597 C20.4702938,12.9136597 21.2844163,12.9136597 22.0384615,12.9136597 C22.0384615,12.5678161 22.0384615,11.3728506 22.0384615,10.2692308 C21.0318339,10.2692308 19.886622,10.2692308 19.3818193,10.2692308 C15.6186754,10.2690554 15.7073227,12.8117202 15.7073227,13.1912748 Z" id="Facebook" fill="#FFFFFF" fill-rule="nonzero"></path>
                        <circle id="Oval" stroke="#FFFFFF" stroke-width="0.923076923" cx="17.5" cy="17.5" r="17.5"></circle>
                    </g>
                </g>
            </g>
        </g>
    </g>
</svg>