<?xml version="1.0" encoding="UTF-8"?>
<svg width="38px" height="38px" viewBox="0 0 38 38" version="1.1" xmlns="http://www.w3.org/2000/svg" xmlns:xlink="http://www.w3.org/1999/xlink">
    <title>Group 55</title>
    <g id="Page-1" stroke="none" stroke-width="1" fill="none" fill-rule="evenodd">
        <g id="home-copy-2" transform="translate(-1302.000000, -4790.000000)">
            <g id="Group-99" transform="translate(0.000000, 4735.000000)">
                <g id="Group-6" transform="translate(1203.000000, 56.000000)">
                    <g id="Group-55" transform="translate(100.000000, 0.000000)">
                        <g id="Group-57" transform="translate(0.115385, 0.807692)">
                            <path d="M17.5384615,16.304387 L17.5384615,19.3219651 L21.7819615,19.3219651 C21.1624615,21.0781956 19.4944615,22.3395433 17.5384615,22.3395433 C15.0574615,22.3395433 13.0384615,20.3087132 13.0384615,17.8131761 C13.0384615,15.317639 15.0574615,13.2868089 17.5384615,13.2868089 C18.6139615,13.2868089 19.6489615,13.6745677 20.4529615,14.3791722 L22.4239615,12.1039183 C21.0739615,10.9210276 19.3399615,10.2692308 17.5384615,10.2692308 C13.4029615,10.2692308 10.0384615,13.6534446 10.0384615,17.8131761 C10.0384615,21.9729075 13.4029615,25.3571214 17.5384615,25.3571214 C21.6739615,25.3571214 25.0384615,21.9729075 25.0384615,17.8131761 L25.0384615,16.304387 L17.5384615,16.304387 Z" id="Shape" fill="#FFFFFF" fill-rule="nonzero"></path>
                            <circle id="Oval-Copy-7" stroke="#FFFFFF" stroke-width="0.923076923" cx="17.5" cy="17.5" r="17.5"></circle>
                        </g>
                    </g>
                </g>
            </g>
        </g>
    </g>
</svg>