<?xml version="1.0" encoding="UTF-8"?>
<svg width="41px" height="41px" viewBox="0 0 41 41" version="1.1" xmlns="http://www.w3.org/2000/svg" xmlns:xlink="http://www.w3.org/1999/xlink">
    <title>instagram-logo</title>
    <g id="Page-1" stroke="none" stroke-width="1" fill="none" fill-rule="evenodd">
        <g id="home-copy-2" transform="translate(-1250.000000, -4791.000000)">
            <g id="Group-99" transform="translate(0.000000, 4735.000000)">
                <g id="Group-6" transform="translate(1203.000000, 56.000000)">
                    <g id="instagram-logo" transform="translate(48.000000, 0.000000)">
                        <g id="Group-60" transform="translate(0.923077, 0.000000)">
                            <g id="Group-56" transform="translate(11.076923, 11.076923)" fill-rule="nonzero">
                                <path d="M10.6030317,3.27942801e-15 L3.93542938,3.27942801e-15 C1.76539724,3.27942801e-15 3.27942801e-15,1.76539724 3.27942801e-15,3.93542938 L3.27942801e-15,10.6031426 C3.27942801e-15,12.7730638 1.76539724,14.5384611 3.93542938,14.5384611 L10.6031426,14.5384611 C12.7730638,14.5384611 14.5384611,12.7730638 14.5384611,10.6031426 L14.5384611,3.93542938 C14.5384611,1.76539724 12.7730638,3.27942801e-15 10.6030317,3.27942801e-15 Z M7.26923054,11.2444801 C5.07723632,11.2444801 3.293981,9.46122476 3.293981,7.26923054 C3.293981,5.07723632 5.07723632,3.293981 7.26923054,3.293981 C9.46122476,3.293981 11.2444801,5.07723632 11.2444801,7.26923054 C11.2444801,9.46122476 9.46122476,11.2444801 7.26923054,11.2444801 L7.26923054,11.2444801 Z M11.3395382,4.23147393 C10.6917674,4.23147393 10.1648991,3.70460558 10.1648991,3.05683479 C10.1648991,2.409064 10.6917674,1.88208471 11.3395382,1.88208471 C11.987309,1.88208471 12.5142883,2.409064 12.5142883,3.05683479 C12.5142883,3.70460558 11.987309,4.23147393 11.3395382,4.23147393 Z" id="Shape" fill="#FFFFFF"></path>
                                <path d="M11.3395382,2.73450226 C11.1618449,2.73450226 11.0172057,2.87914149 11.0172057,3.05683479 C11.0172057,3.23452807 11.1618449,3.3791673 11.3395382,3.3791673 C11.5173424,3.3791673 11.6619817,3.23463898 11.6619817,3.05683479 C11.6619817,2.87903058 11.5173424,2.73450226 11.3395382,2.73450226 Z" id="Path" fill="#222222"></path>
                            </g>
                            <circle id="Oval-Copy-5" stroke="#FFFFFF" stroke-width="0.923076923" cx="17.8461538" cy="18.3076923" r="17.5"></circle>
                        </g>
                    </g>
                </g>
            </g>
        </g>
    </g>
</svg>