<?xml version="1.0" encoding="UTF-8"?>
<svg width="112px" height="52px" viewBox="0 0 112 52" version="1.1" xmlns="http://www.w3.org/2000/svg" xmlns:xlink="http://www.w3.org/1999/xlink">
    <title>Group 10 Copy 4</title>
    <defs>
        <polygon id="path-1" points="0 0.111857047 27.5735074 0.111857047 27.5735074 50.7922306 0 50.7922306"></polygon>
    </defs>
    <g id="Page-1" stroke="none" stroke-width="1" fill="none" fill-rule="evenodd">
        <g id="home-copy-2" transform="translate(-52.000000, -6.000000)">
            <g id="Group-10-Copy-4" transform="translate(52.000000, 6.000000)">
                <g id="Fill-18-Clipped" transform="translate(0.000000, 0.459071)">
                    <mask id="mask-2" fill="white">
                        <use xlink:href="#path-1"></use>
                    </mask>
                    <g id="path-1"></g>
                    <path d="M13.6837885,7.41721854 L6.05402238,18.4327954 C3.42023885,22.2347687 3.37334656,27.2387511 5.93522858,31.0883556 L13.0671549,41.8061409 L13.2265886,27.7905755 C12.5704874,27.6511672 12.0820261,27.0699122 12.0902322,26.379454 C12.0988291,25.5910228 12.7510227,24.9590387 13.5470193,24.9679453 C14.3422344,24.9768519 14.9799695,25.6231642 14.9709818,26.4115953 C14.9631664,27.1020535 14.4614189,27.6724657 13.8025823,27.7971587 L13.6451023,41.6295571 L20.8919148,31.2556455 C23.5409383,27.4641278 23.6077598,22.4601454 21.0615085,18.6004726 L13.6837885,7.41721854 Z" id="Fill-18" fill="#FFFFFF" fill-rule="nonzero" mask="url(#mask-2)"></path>
                </g>
                <g id="Group-9" transform="translate(35.737508, 16.857315)" fill="#FFFFFF" fill-rule="nonzero">
                    <path d="M5.17766867,13.0667292 L4.15012477,7.76607485 L4.10931977,7.76607485 L3.0817758,13.0667292 L5.17766867,13.0667292 Z M1.3688963e-15,18.182477 L3.2669677,3.55431463 L5.01330729,3.55431463 L8.27998965,18.182477 L6.18409677,18.182477 L5.5677416,15.0390657 L2.7119627,15.0390657 L2.09560752,18.182477 L1.3688963e-15,18.182477 Z" id="Fill-1"></path>
                    <path d="M15.8610154,1.09511704e-14 C15.573383,1.8627623 14.5184455,2.79414339 12.6970589,2.79414339 C10.8751017,2.79414339 9.82073484,1.8627623 9.53310242,1.09511704e-14 L10.5809062,1.09511704e-14 C10.6082998,0.192040292 10.6593774,0.38008569 10.734995,0.564706893 C10.810042,0.749898794 10.9301742,0.917969719 11.0945355,1.06834897 C11.2588969,1.21901356 11.4709117,1.3388604 11.7314359,1.42788948 C11.9913893,1.51691857 12.3132637,1.56143311 12.6970589,1.56143311 C13.0802835,1.56143311 13.4024432,1.51691857 13.662682,1.42788948 C13.9226355,1.3388604 14.135221,1.21901356 14.2995824,1.06834897 C14.4639437,0.917969719 14.5835052,0.749898794 14.6591228,0.564706893 C14.7341698,0.38008569 14.7855327,0.192040292 14.8132116,1.09511704e-14 L15.8610154,1.09511704e-14 Z M9.18383456,7.00590361 C9.18383456,6.41694206 9.28656042,5.89646436 9.49201208,5.44447057 C9.6974638,4.99247677 9.97111409,4.61610063 10.313819,4.31448615 C10.6425417,4.02685373 11.015779,3.80799058 11.4335309,3.65704063 C11.8509974,3.50637603 12.2724587,3.43104373 12.6970589,3.43104373 C13.1213738,3.43104373 13.5425498,3.50637603 13.960587,3.65704063 C14.3783388,3.80799058 14.7584245,4.02685373 15.100844,4.31448615 C15.4295668,4.61610063 15.696654,4.99247677 15.9021057,5.44447057 C16.1075575,5.89646436 16.2102833,6.41694206 16.2102833,7.00590361 L16.2102833,7.74552981 L14.1146758,7.74552981 L14.1146758,7.00590361 C14.1146758,6.49912275 13.9739985,6.1261708 13.6934998,5.88619177 C13.4127158,5.64678344 13.0802835,5.52665126 12.6970589,5.52665126 C12.3132637,5.52665126 11.9811167,5.64678344 11.7006181,5.88619177 C11.4198341,6.1261708 11.2794421,6.49912275 11.2794421,7.00590361 L11.2794421,14.7308882 C11.2794421,15.2376692 11.4198341,15.6111918 11.7006181,15.8506001 C11.9811167,16.0905792 12.3132637,16.2101407 12.6970589,16.2101407 C13.0802835,16.2101407 13.4127158,16.0905792 13.6934998,15.8506001 C13.9739985,15.6111918 14.1146758,15.2376692 14.1146758,14.7308882 L14.1146758,11.9778352 L12.4505168,11.9778352 L12.4505168,10.1287698 L16.2102833,10.1287698 L16.2102833,14.7308882 C16.2102833,15.3472434 16.1075575,15.8748549 15.9021057,16.3128665 C15.696654,16.7514489 15.4295668,17.1141282 15.100844,17.4017606 C14.7584245,17.7030898 14.3783388,17.9290867 13.960587,18.0794659 C13.5425498,18.2304159 13.1213738,18.3054628 12.6970589,18.3054628 C12.2724587,18.3054628 11.8509974,18.2304159 11.4335309,18.0794659 C11.015779,17.9290867 10.6425417,17.7030898 10.313819,17.4017606 C9.97111409,17.1141282 9.6974638,16.7514489 9.49201208,16.3128665 C9.28656042,15.8748549 9.18383456,15.3472434 9.18383456,14.7308882 L9.18383456,7.00590361 Z" id="Fill-2"></path>
                    <path d="M22.2916827,13.0667293 L21.2641388,7.76607499 L21.2233338,7.76607499 L20.1957898,13.0667293 L22.2916827,13.0667293 Z M17.114014,18.1824772 L20.3809817,3.55431477 L22.1273213,3.55431477 L25.3940037,18.1824772 L23.2981108,18.1824772 L22.6817556,15.0390658 L19.8259767,15.0390658 L19.2096216,18.1824772 L17.114014,18.1824772 Z" id="Fill-4"></path>
                    <path d="M33.0778409,14.0116931 L33.0778409,14.9156807 C33.0778409,15.3679598 32.9919507,15.7959842 32.8210263,16.1997539 C32.6495311,16.6040943 32.4132617,16.9636348 32.1119325,17.2783754 C31.8108887,17.5936867 31.4579112,17.8433677 31.0538561,18.0282742 C30.6498011,18.2134661 30.2149283,18.305634 29.749523,18.305634 C29.3517457,18.305634 28.947976,18.2505616 28.5373579,18.141558 C28.1261691,18.0319838 27.7566414,17.8402288 27.4276333,17.5660078 C27.0991959,17.2923576 26.8286845,16.9396655 26.616099,16.5079315 C26.4035136,16.0764829 26.2976489,15.5254728 26.2976489,14.8540451 L26.2976489,6.80062316 C26.2976489,6.3212358 26.3798295,5.87580505 26.5444763,5.46518695 C26.7088377,5.05399815 26.9413975,4.69788183 27.2430121,4.39683805 C27.5437706,4.09550885 27.9035964,3.85923937 28.3216336,3.68774425 C28.7391001,3.51681983 29.2013665,3.43121494 29.7081474,3.43121494 C30.6943156,3.43121494 31.4958627,3.75308931 32.1119325,4.39683805 C32.4132617,4.71186396 32.6495311,5.08510126 32.8210263,5.51654988 C32.9919507,5.94771315 33.0778409,6.41711327 33.0778409,6.92360884 L33.0778409,7.74541567 L30.981948,7.74541567 L30.981948,7.04716516 C30.981948,6.63597643 30.8655254,6.28014545 30.6329655,5.97881626 C30.3998348,5.67748706 30.0848088,5.52682246 29.6876022,5.52682246 C29.1671245,5.52682246 28.8212808,5.68775965 28.650071,6.00934867 C28.4788613,6.33150839 28.3935417,6.73898764 28.3935417,7.23178636 L28.3935417,14.7102289 C28.3935417,15.1351145 28.4857097,15.4912308 28.6709016,15.7785779 C28.8555228,16.0662103 29.1876697,16.2100265 29.6673424,16.2100265 C29.8037395,16.2100265 29.9512652,16.1863425 30.1090636,16.1381184 C30.2660059,16.090465 30.4135316,16.0117085 30.5507848,15.9018489 C30.6737705,15.79256 30.7767817,15.6418954 30.8589624,15.4498551 C30.941143,15.2583855 30.981948,15.0184065 30.981948,14.7310595 L30.981948,14.0116931 L33.0778409,14.0116931 Z" id="Fill-6"></path>
                    <path d="M36.8784979,5.52670833 L36.8784979,16.2099124 L37.844121,16.2099124 C38.4327973,16.2099124 38.8508345,16.0632427 39.0973766,15.7684765 C39.3439186,15.4739957 39.4671896,15.0117293 39.4671896,14.3816775 L39.4671896,7.33468343 C39.4671896,6.75913332 39.350767,6.31455862 39.1179217,5.99924729 C38.8847911,5.68422131 38.4604762,5.52670833 37.844121,5.52670833 L36.8784979,5.52670833 Z M34.7828904,18.1825342 L34.7828904,3.55437184 L37.8852114,3.55437184 C39.0902428,3.55437184 40.0045029,3.8830946 40.6279918,4.54054005 C41.2509101,5.19798557 41.5627972,6.12936672 41.5627972,7.33468343 L41.5627972,14.1762257 C41.5627972,15.5459038 41.2306502,16.5560415 40.5663563,17.2066385 C39.9017771,17.8572357 38.9464266,18.1825342 37.7003048,18.1825342 L34.7828904,18.1825342 Z" id="Fill-8"></path>
                    <path d="M46.8222755,16.2100551 C47.2605725,16.2100551 47.5824469,16.080221 47.7878986,15.8199821 C47.9933504,15.5597433 48.0960762,15.2173237 48.0960762,14.7924382 L48.0960762,11.6695721 L45.5076699,11.6695721 L45.5076699,14.8129833 C45.5076699,15.1964932 45.6166735,15.5255013 45.8361073,15.799437 C46.0552558,16.0733726 46.3839786,16.2100551 46.8222755,16.2100551 L46.8222755,16.2100551 Z M43.411777,9.82050656 L48.0960762,9.82050656 L48.0960762,7.17017938 C48.0960762,6.67738066 48.0001988,6.28017399 47.8084438,5.97884479 C47.6164035,5.6775156 47.2605725,5.526851 46.7400949,5.526851 C46.3017979,5.526851 45.9867719,5.66381882 45.795017,5.9374691 C45.603262,6.21169008 45.5076699,6.55382427 45.5076699,6.96501307 L45.5076699,7.74544421 L43.411777,7.74544421 L43.411777,6.92363738 C43.411777,6.41714181 43.4973819,5.94774169 43.6685917,5.51629306 C43.8398015,5.08512979 44.0760709,4.71189249 44.3776854,4.39686658 C44.9937553,3.75311785 45.795017,3.43124348 46.7811853,3.43124348 C47.2879661,3.43124348 47.7499471,3.51684836 48.1679843,3.68777278 C48.5857362,3.8592679 48.9449913,4.09553739 49.2466059,4.39686658 C49.5479349,4.69791036 49.7807802,5.05402668 49.9451416,5.46521548 C50.1097883,5.87583358 50.191969,6.32126433 50.191969,6.80036634 L50.191969,14.7308026 C50.191969,15.2378689 50.1126418,15.7104079 49.9554142,16.1484195 C49.7979012,16.5870019 49.5719043,16.9636633 49.2774235,17.278404 C48.9826575,17.5937153 48.6234023,17.8433962 48.1988021,18.0283028 C47.7742019,18.2134947 47.2879661,18.3056626 46.7400949,18.3056626 C46.2744043,18.3056626 45.8395315,18.2200577 45.4357618,18.0488479 C45.0314214,17.8779235 44.6784439,17.6450782 44.3776854,17.3503121 C44.0760709,17.0561166 43.8398015,16.7068487 43.6685917,16.3025083 C43.4973819,15.8987386 43.411777,15.4638658 43.411777,14.9978899 L43.411777,9.82050656 Z" id="Fill-10"></path>
                    <polygon id="Fill-12" points="52.0404923 18.1824201 52.0404923 3.5542577 54.1363852 3.5542577 54.1363852 16.0868126 58.2862247 16.0868126 58.2862247 18.1824201"></polygon>
                    <path d="M62.9294905,16.2100551 C63.3677875,16.2100551 63.6896618,16.080221 63.8953989,15.8199821 C64.1005653,15.5597433 64.2035765,15.2173237 64.2035765,14.7924382 L64.2035765,11.6695721 L61.6148848,11.6695721 L61.6148848,14.8129833 C61.6148848,15.1964932 61.7241737,15.5255013 61.9433222,15.799437 C62.1624707,16.0733726 62.4911934,16.2100551 62.9294905,16.2100551 L62.9294905,16.2100551 Z M59.5192772,9.82050656 L64.2035765,9.82050656 L64.2035765,7.17017938 C64.2035765,6.67738066 64.1074137,6.28017399 63.9156587,5.97884479 C63.7236184,5.6775156 63.3677875,5.526851 62.8475951,5.526851 C62.4090128,5.526851 62.0939868,5.66381882 61.9022318,5.9374691 C61.7104769,6.21169008 61.6148848,6.55382427 61.6148848,6.96501307 L61.6148848,7.74544421 L59.5192772,7.74544421 L59.5192772,6.92363738 C59.5192772,6.41714181 59.6045967,5.94774169 59.7758065,5.51629306 C59.9470163,5.08512979 60.1832857,4.71189249 60.4849003,4.39686658 C61.1012555,3.75311785 61.9022318,3.43124348 62.8884001,3.43124348 C63.395181,3.43124348 63.8574474,3.51684836 64.2754846,3.68777278 C64.6929511,3.8592679 65.0524916,4.09553739 65.3538208,4.39686658 C65.65515,4.69791036 65.8879953,5.05402668 66.0523567,5.46521548 C66.2170034,5.87583358 66.2991841,6.32126433 66.2991841,6.80036634 L66.2991841,14.7308026 C66.2991841,15.2378689 66.2198569,15.7104079 66.0626293,16.1484195 C65.9051163,16.5870019 65.6791194,16.9636633 65.3846386,17.278404 C65.0898724,17.5937153 64.7306172,17.8433962 64.306017,18.0283028 C63.8814168,18.2134947 63.395181,18.3056626 62.8475951,18.3056626 C62.3816192,18.3056626 61.9467464,18.2200577 61.5429767,18.0488479 C61.1386363,17.8779235 60.7856588,17.6450782 60.4849003,17.3503121 C60.1832857,17.0561166 59.9470163,16.7068487 59.7758065,16.3025083 C59.6045967,15.8987386 59.5192772,15.4638658 59.5192772,14.9978899 L59.5192772,9.82050656 Z" id="Fill-14"></path>
                    <polygon id="Fill-16" points="68.0654982 18.1824201 68.0654982 3.5542577 70.0789251 3.5542577 73.2428817 12.3681364 73.283972 12.3681364 73.283972 3.5542577 75.3795796 3.5542577 75.3795796 18.1824201 73.4072431 18.1824201 70.2021962 9.38937189 70.1611058 9.38937189 70.1611058 18.1824201"></polygon>
                </g>
            </g>
        </g>
    </g>
</svg>