<?xml version="1.0" encoding="UTF-8"?>
<svg width="15px" height="13px" viewBox="0 0 15 13" version="1.1" xmlns="http://www.w3.org/2000/svg" xmlns:xlink="http://www.w3.org/1999/xlink">
    <title>🎨 Icon Color</title>
    <g id="Page-1" stroke="none" stroke-width="1" fill="none" fill-rule="evenodd">
        <g id="home-copy-2" transform="translate(-1372.000000, -1317.000000)" fill="#7D6836">
            <g id="Group-25" transform="translate(1354.000000, 1299.000000)">
                <path d="M27.329043,18.317301 L32.6861858,23.7339677 L32.7127006,23.7617437 C32.7222826,23.7721439 32.7316646,23.7827349 32.7408404,23.7935105 L32.6861858,23.7339677 C32.7211034,23.7692732 32.753107,23.8064093 32.7821968,23.8450705 C32.7947355,23.8618513 32.8071676,23.8794356 32.819082,23.8974004 C32.8295496,23.9130368 32.8390597,23.9282083 32.8481606,23.9435587 C32.8567783,23.9582415 32.8655268,23.9738266 32.8738983,23.9896465 C32.884309,24.0092208 32.8937023,24.0283892 32.9025003,24.0477661 C32.9106066,24.0656429 32.9184233,24.0841482 32.925737,24.1029095 C32.9323548,24.1199867 32.9383986,24.1367643 32.9440193,24.1536542 C32.9803218,24.2622847 33,24.3788188 33,24.5 L32.9935956,24.6186295 C32.983341,24.7132969 32.9607717,24.8068592 32.9258877,24.8966617 C32.9184233,24.9158518 32.9106066,24.9343571 32.9023038,24.9525893 C32.8937023,24.9716108 32.884309,24.9907792 32.8743202,25.0097109 C32.8655268,25.0261734 32.8567783,25.0417585 32.8476648,25.0570968 C32.8390597,25.0717917 32.8295496,25.0869632 32.8196304,25.1019399 C32.8071676,25.1205644 32.7947355,25.1381487 32.7818073,25.1553307 C32.7690947,25.1723426 32.7554015,25.1894462 32.7411172,25.2062126 C32.7316646,25.2172651 32.7222826,25.2278561 32.7127006,25.2382563 C32.7042337,25.2474578 32.6953093,25.2568076 32.6861858,25.2660323 L27.329043,30.682699 C26.9106241,31.105767 26.232233,31.105767 25.8138142,30.682699 C25.3953953,30.259631 25.3953953,29.5737023 25.8138142,29.1506343 L29.342,25.583 L19.0714286,25.5833333 C18.4796949,25.5833333 18,25.0983085 18,24.5 C18,23.9016915 18.4796949,23.4166667 19.0714286,23.4166667 L29.341,23.416 L25.8138142,19.8493657 C25.3953953,19.4262977 25.3953953,18.740369 25.8138142,18.317301 C26.232233,17.894233 26.9106241,17.894233 27.329043,18.317301 Z" id="🎨-Icon-Color"></path>
            </g>
        </g>
    </g>
</svg>