<?xml version="1.0" encoding="UTF-8"?>
<svg width="24px" height="23px" viewBox="0 0 24 23" version="1.1" xmlns="http://www.w3.org/2000/svg" xmlns:xlink="http://www.w3.org/1999/xlink">
    <title>Group 31</title>
    <g id="Page-1" stroke="none" stroke-width="1" fill="none" fill-rule="evenodd" opacity="0.402320499">
        <g id="home-copy-2" transform="translate(-1088.000000, -20.000000)" fill-rule="nonzero">
            <g id="Group-65" transform="translate(891.000000, 13.000000)">
                <g id="Group-31" transform="translate(197.000000, 8.000000)">
                    <path d="M22.022,9.206 L16.404,7.014 L14.244,0.514 C14.142,0.207 13.854,4.51194637e-13 13.532,4.51194637e-13 C13.21,4.51194637e-13 12.922,0.207 12.82,0.513 L10.66,7.013 L5.04,9.205 C4.753,9.317 4.563,9.595 4.563,9.905 C4.563,10.215 4.753,10.49 5.041,10.603 L10.661,12.795 L12.821,19.295 C12.923,19.601 13.211,19.808 13.533,19.808 C13.855,19.808 14.143,19.601 14.245,19.295 L16.405,12.795 L22.025,10.603 C22.312,10.491 22.502,10.213 22.502,9.903 C22.502,9.593 22.312,9.318 22.024,9.206 L22.022,9.206 Z" id="Path" stroke="#FFFFFF" stroke-width="2"></path>
                    <path d="M5.913,2.512 L4.033,2.512 L4.033,0.75 C4.033,0.336 3.696,1.70974346e-13 3.283,1.70974346e-13 C2.87,1.70974346e-13 2.533,0.336 2.533,0.75 L2.533,2.512 L0.75,2.512 C0.336,2.512 1.31006317e-13,2.848 1.31006317e-13,3.262 C1.31006317e-13,3.676 0.336,4.012 0.75,4.012 L2.532,4.012 L2.532,5.774 C2.532,6.188 2.868,6.524 3.282,6.524 C3.696,6.524 4.032,6.188 4.032,5.774 L4.032,4.012 L5.912,4.012 C6.327,4.012 6.662,3.676 6.662,3.262 C6.662,2.848 6.327,2.512 5.912,2.512 L5.913,2.512 Z" id="Path" fill="#FFFFFF"></path>
                    <path d="M8.448,18.134 L7.348,18.134 L7.348,17.118 C7.348,16.704 7.013,16.368 6.598,16.368 C6.183,16.368 5.848,16.704 5.848,17.118 L5.848,18.134 L4.82,18.134 C4.406,18.134 4.07,18.47 4.07,18.884 C4.07,19.298 4.406,19.634 4.82,19.634 L5.85,19.634 L5.85,20.65 C5.85,21.064 6.185,21.4 6.6,21.4 C7.015,21.4 7.35,21.064 7.35,20.65 L7.35,19.634 L8.448,19.634 C8.862,19.634 9.198,19.298 9.198,18.884 C9.198,18.47 8.862,18.134 8.448,18.134 L8.448,18.134 Z" id="Path" fill="#FFFFFF"></path>
                </g>
            </g>
        </g>
    </g>
</svg>