<?xml version="1.0" encoding="UTF-8"?>
<svg width="37px" height="37px" viewBox="0 0 37 37" version="1.1" xmlns="http://www.w3.org/2000/svg" xmlns:xlink="http://www.w3.org/1999/xlink">
    <title>Group 58</title>
    <g id="Page-1" stroke="none" stroke-width="1" fill="none" fill-rule="evenodd">
        <g id="home-copy-2" transform="translate(-1350.000000, -4791.000000)">
            <g id="Group-99" transform="translate(0.000000, 4735.000000)">
                <g id="Group-6" transform="translate(1203.000000, 56.000000)">
                    <g id="Group-59" transform="translate(148.000000, 1.000000)">
                        <path d="M25.2237333,16.9770592 C26.390212,16.8755759 27.1814493,16.3163738 27.4859496,15.5576167 C27.0651732,15.8301908 25.7589991,16.1273592 25.0376337,15.8443465 C25.0022873,15.6656178 24.9627882,15.4958509 24.9240134,15.342582 C24.374358,13.2142329 22.4924049,11.4995569 20.5204925,11.706699 C20.680034,11.6387718 20.8418451,11.5755294 21.0031733,11.5187537 C21.2202251,11.4367727 22.4937087,11.2182755 22.2931711,10.7442623 C22.1241652,10.3273304 20.5682487,11.0593545 20.275289,11.155033 C20.6620228,11.0016623 21.3015894,10.7378464 21.3701092,10.2692308 C20.7776229,10.3549289 20.1960011,10.6503151 19.7465903,11.0798243 C19.908836,10.8956471 20.0319206,10.6711923 20.058044,10.4296284 C18.4777907,11.4942103 17.5546805,13.6404832 16.8076261,15.7224443 C16.2210308,15.1229646 15.7011204,14.6508864 15.2347124,14.3887509 C13.9262688,13.6488341 12.3618054,12.8768378 9.90595663,11.9154705 C9.83058,12.7722993 10.3078044,13.9115807 11.6829329,14.6692176 C11.3849996,14.6271577 10.8401729,14.7210031 10.4044274,14.8310409 C10.5818836,15.8126234 11.161429,16.621333 12.7303831,17.0123976 C12.0133635,17.0622991 11.642806,17.2343574 11.3069672,17.6052069 C11.6335349,18.2878897 12.4304218,19.0913545 13.8639298,18.926425 C12.2701559,19.6508112 13.214078,20.9922954 14.5109326,20.7922312 C12.2985972,23.2019127 8.81060529,23.0248133 6.80769231,21.0093536 C12.0371692,28.523702 23.4048436,25.4533351 25.0989104,18.2155835 C26.3681446,18.2269895 27.1142815,17.751958 27.5769231,17.228247 C26.8456587,17.3591111 25.7857503,17.2238679 25.2237333,16.9770592 Z" id="Twitter__x28_alt_x29_" fill="#FFFFFF" fill-rule="nonzero"></path>
                        <circle id="Oval-Copy-8" stroke="#FFFFFF" stroke-width="0.923076923" cx="17.5" cy="17.5" r="17.5"></circle>
                    </g>
                </g>
            </g>
        </g>
    </g>
</svg>