<?xml version="1.0" encoding="UTF-8"?>
<svg width="23px" height="23px" viewBox="0 0 23 23" version="1.1" xmlns="http://www.w3.org/2000/svg" xmlns:xlink="http://www.w3.org/1999/xlink">
    <title>🎨 Icon Color</title>
    <g id="Page-1" stroke="none" stroke-width="1" fill="none" fill-rule="evenodd">
        <g id="home-copy-2" transform="translate(-310.000000, -1622.000000)" fill="#7D6836">
            <g id="Group-86" transform="translate(108.000000, 948.000000)">
                <g id="Group-85" transform="translate(2.000000, 116.000000)">
                    <g id="Group-17-Copy-11" transform="translate(0.000000, 1.000000)">
                        <g id="Group-15" transform="translate(0.000000, 547.000000)">
                            <g id="Icon-/-Success" transform="translate(200.425532, 10.687943)">
                                <path d="M10.9503546,0 C16.9980685,0 21.9007092,4.90264075 21.9007092,10.9503546 C21.9007092,16.9980685 16.9980685,21.9007092 10.9503546,21.9007092 C4.90264075,21.9007092 0,16.9980685 0,10.9503546 C0,4.90264075 4.90264075,0 10.9503546,0 Z M16.1280724,7.43845896 C15.7004344,7.01082101 15.0070963,7.01082101 14.5794584,7.43845896 L14.5794584,7.43845896 L8.7835526,13.2343647 L6.79700204,11.2478142 C6.36936409,10.8201762 5.67602598,10.8201762 5.24838804,11.2478142 C4.82075009,11.6754521 4.82075009,12.3687902 5.24838804,12.7964282 L5.24838804,12.7964282 L8.0092456,15.5572857 C8.43688355,15.9849237 9.13022165,15.9849237 9.5578596,15.5572857 L9.5578596,15.5572857 L16.1280724,8.98707296 C16.5557103,8.55943501 16.5557103,7.86609691 16.1280724,7.43845896 Z" id="🎨-Icon-Color"></path>
                            </g>
                        </g>
                    </g>
                </g>
            </g>
        </g>
    </g>
</svg>