<?xml version="1.0" encoding="UTF-8"?>
<svg width="18px" height="23px" viewBox="0 0 18 23" version="1.1" xmlns="http://www.w3.org/2000/svg" xmlns:xlink="http://www.w3.org/1999/xlink">
    <title>967AEF15-2D90-4A6C-B609-487E94D89113</title>
    <g id="Page-1" stroke="none" stroke-width="1" fill="none" fill-rule="evenodd" stroke-linecap="round" stroke-linejoin="round">
        <g id="chat" transform="translate(-693.000000, -738.000000)" stroke="#FFFFFF" stroke-width="2">
            <g id="Group-10" transform="translate(110.000000, 108.000000)">
                <g id="Group-20" transform="translate(572.000000, 617.512718)">
                    <g id="Group-17" transform="translate(12.000000, 14.000000)">
                        <path d="M10,0 L2,0 C0.8954305,0 0,0.8954305 0,2 L0,18 C0,19.1045695 0.8954305,20 2,20 L14,20 C15.1045695,20 16,19.1045695 16,18 L16,6 L10,0 Z" id="Path"></path>
                        <polyline id="Path" points="10 0 10 6 16 6"></polyline>
                        <line x1="12" y1="11" x2="4" y2="11" id="Path"></line>
                        <line x1="12" y1="15" x2="4" y2="15" id="Path"></line>
                        <polyline id="Path" points="6 7 5 7 4 7"></polyline>
                    </g>
                </g>
            </g>
        </g>
    </g>
</svg>