<?xml version="1.0" encoding="UTF-8"?>
<svg width="16px" height="28px" viewBox="0 0 16 28" version="1.1" xmlns="http://www.w3.org/2000/svg" xmlns:xlink="http://www.w3.org/1999/xlink">
    <title>noun_tack_2221199</title>
    <g id="Page-1" stroke="none" stroke-width="1" fill="none" fill-rule="evenodd">
        <g id="inner-page-article" transform="translate(-1284.000000, -625.000000)" fill-rule="nonzero" stroke="#929292" stroke-width="2">
            <g id="Group-14" transform="translate(1062.000000, 616.000000)">
                <g id="Group-11" transform="translate(199.000000, 0.000000)">
                    <g id="noun_tack_2221199" transform="translate(24.000000, 10.000000)">
                        <path d="M7,25.2 C7.16624233,25.2 7.30576726,25.069446 7.323596,24.8972018 L8.4122528,14.3818182 L5.5877472,14.3818182 L6.676404,24.8972018 C6.69423274,25.069446 6.83375767,25.2 7,25.2 L7,25.2 Z" id="Path" fill="#929292"></path>
                        <path d="M13.79,13.2492948 C13.79,11.9093828 12.1437876,10.8231676 10.8038756,10.8231676 L10.276,10.8231676 L10.276,1.7056676 L10.907162,1.7056676 C11.2122183,1.70622035 11.4943386,1.54379214 11.6470266,1.27969741 C11.7997145,1.01560268 11.7997145,0.690064916 11.6470266,0.425970189 C11.4943386,0.161875463 11.2122183,-0.000552747675 10.907162,-1.40627621e-06 L3.0928352,-1.40627621e-06 C2.78777895,-0.000552747675 2.50565855,0.161875463 2.35297064,0.425970189 C2.20028273,0.690064916 2.20028273,1.01560268 2.35297064,1.27969741 C2.50565855,1.54379214 2.78777895,1.70622035 3.0928352,1.7056676 L3.724,1.7056676 L3.724,10.8231676 L3.1961244,10.8231676 C1.8562124,10.8231676 0.21,11.9093828 0.21,13.2492948 L0.21,13.5356676 L13.79,13.5356676 L13.79,13.2492948 Z" id="Path"></path>
                    </g>
                </g>
            </g>
        </g>
    </g>
</svg>