<?xml version="1.0" encoding="UTF-8"?>
<svg width="1044px" height="114px" viewBox="0 0 1044 114" version="1.1" xmlns="http://www.w3.org/2000/svg" xmlns:xlink="http://www.w3.org/1999/xlink">
    <title>Path</title>
    <defs>
        <filter x="-5.0%" y="-38.9%" width="110.1%" height="177.9%" filterUnits="objectBoundingBox" id="filter-1">
            <feOffset dx="0" dy="8" in="SourceAlpha" result="shadowOffsetOuter1"></feOffset>
            <feGaussianBlur stdDeviation="9" in="shadowOffsetOuter1" result="shadowBlurOuter1"></feGaussianBlur>
            <feColorMatrix values="0 0 0 0 0   0 0 0 0 0   0 0 0 0 0  0 0 0 0.0419307255 0" type="matrix" in="shadowBlurOuter1" result="shadowMatrixOuter1"></feColorMatrix>
            <feMerge>
                <feMergeNode in="shadowMatrixOuter1"></feMergeNode>
                <feMergeNode in="SourceGraphic"></feMergeNode>
            </feMerge>
        </filter>
    </defs>
    <g id="Page-1" stroke="none" stroke-width="1" fill="none" fill-rule="evenodd" fill-opacity="0.0958533654" stroke-opacity="0.163434222">
        <g id="inner-page-article-copy" transform="translate(-197.000000, -1023.000000)" fill="#FFFFFF" fill-rule="nonzero" stroke="#E6E6E6" stroke-width="1.01121346">
            <g id="Group-18" transform="translate(214.000000, 982.000000)" filter="url(#filter-1)">
                <g id="wave" transform="translate(0.000000, 45.167401)">
                    <path d="M0,0 L5.61111111,7.87482479 C11.2222222,15.6316747 22.4444444,31.5582866 33.6666667,31.4698054 C44.8888889,31.5582866 56.1111111,15.6316747 67.3333333,17.312817 C78.5555556,18.8759845 89.7777778,37.751969 101,47.1899613 C112.222222,56.6279535 123.444444,56.6279535 134.666667,59.7837822 C145.888889,62.821636 157.111111,69.3102556 168.333333,72.3481094 C179.555556,75.5039381 190.777778,75.5039381 202,75.5039381 C213.222222,75.5039381 224.444444,75.5039381 235.666667,70.7849419 C246.888889,66.0659458 258.111111,56.6279535 269.333333,48.7531288 C280.555556,40.9962789 291.777778,34.5076592 303,40.9077977 C314.222222,47.1899613 325.444444,66.0659458 336.666667,69.2217745 C347.888889,72.2596282 359.111111,59.8722634 370.333333,51.9089574 C381.555556,43.9456514 392.777778,40.9962789 404,44.0341326 C415.222222,47.1899613 426.444444,56.6279535 437.666667,59.7837822 C448.888889,62.821636 460.111111,59.8722634 471.333333,47.1899613 C482.555556,34.5076592 493.777778,12.6823021 505,6.2821636 C516.222222,0 527.444444,9.43799226 538.666667,11.0011597 C549.888889,12.6823021 561.111111,6.19368242 572.333333,7.87482479 C583.555556,9.43799226 594.777778,18.8759845 606,29.8771442 C617.222222,40.9962789 628.444444,53.3836437 639.666667,47.1899613 C650.888889,40.9962789 662.111111,15.6316747 673.333333,14.1569884 C684.555556,12.6823021 695.777778,34.5076592 707,48.7531288 C718.222222,62.821636 729.444444,69.3102556 740.666667,59.7837822 C751.888889,50.4342711 763.111111,25.0696669 774.333333,23.5949806 C785.555556,22.1202944 796.777778,43.9456514 808,48.7531288 C819.222222,53.3836437 830.444444,40.9962789 841.666667,36.1888016 C852.888889,31.5582866 864.111111,34.5076592 875.333333,31.4698054 C886.555556,28.3139768 897.777778,18.8759845 909,25.1581481 C920.222222,31.5582866 931.444444,53.3836437 942.666667,51.9089574 C953.888889,50.4342711 965.111111,25.0696669 976.333333,25.1581481 C987.555556,25.0696669 998.777778,50.4342711 1004.38889,62.9101171 L1010,75.5039381 L1010,84.9419303 L1004.38889,84.9419303 C998.777778,84.9419303 987.555556,84.9419303 976.333333,84.9419303 C965.111111,84.9419303 953.888889,84.9419303 942.666667,84.9419303 C931.444444,84.9419303 920.222222,84.9419303 909,84.9419303 C897.777778,84.9419303 886.555556,84.9419303 875.333333,84.9419303 C864.111111,84.9419303 852.888889,84.9419303 841.666667,84.9419303 C830.444444,84.9419303 819.222222,84.9419303 808,84.9419303 C796.777778,84.9419303 785.555556,84.9419303 774.333333,84.9419303 C763.111111,84.9419303 751.888889,84.9419303 740.666667,84.9419303 C729.444444,84.9419303 718.222222,84.9419303 707,84.9419303 C695.777778,84.9419303 684.555556,84.9419303 673.333333,84.9419303 C662.111111,84.9419303 650.888889,84.9419303 639.666667,84.9419303 C628.444444,84.9419303 617.222222,84.9419303 606,84.9419303 C594.777778,84.9419303 583.555556,84.9419303 572.333333,84.9419303 C561.111111,84.9419303 549.888889,84.9419303 538.666667,84.9419303 C527.444444,84.9419303 516.222222,84.9419303 505,84.9419303 C493.777778,84.9419303 482.555556,84.9419303 471.333333,84.9419303 C460.111111,84.9419303 448.888889,84.9419303 437.666667,84.9419303 C426.444444,84.9419303 415.222222,84.9419303 404,84.9419303 C392.777778,84.9419303 381.555556,84.9419303 370.333333,84.9419303 C359.111111,84.9419303 347.888889,84.9419303 336.666667,84.9419303 C325.444444,84.9419303 314.222222,84.9419303 303,84.9419303 C291.777778,84.9419303 280.555556,84.9419303 269.333333,84.9419303 C258.111111,84.9419303 246.888889,84.9419303 235.666667,84.9419303 C224.444444,84.9419303 213.222222,84.9419303 202,84.9419303 C190.777778,84.9419303 179.555556,84.9419303 168.333333,84.9419303 C157.111111,84.9419303 145.888889,84.9419303 134.666667,84.9419303 C123.444444,84.9419303 112.222222,84.9419303 101,84.9419303 C89.7777778,84.9419303 78.5555556,84.9419303 67.3333333,84.9419303 C56.1111111,84.9419303 44.8888889,84.9419303 33.6666667,84.9419303 C22.4444444,84.9419303 11.2222222,84.9419303 5.61111111,84.9419303 L0,84.9419303 L0,0 Z" id="Path"></path>
                </g>
            </g>
        </g>
    </g>
</svg>