<?xml version="1.0" encoding="UTF-8"?>
<svg width="14px" height="14px" viewBox="0 0 14 14" version="1.1" xmlns="http://www.w3.org/2000/svg" xmlns:xlink="http://www.w3.org/1999/xlink">
    <title>🎨 Icon Color</title>
    <g id="Page-1" stroke="none" stroke-width="1" fill="none" fill-rule="evenodd">
        <g id="irad-ve-teklif" transform="translate(-1397.000000, -34.000000)" fill="#929292">
            <g id="Icon-/-Cross" transform="translate(1397.000000, 34.000000)">
                <path d="M13.6582912,0.341708755 C14.1139029,0.797320429 14.1139029,1.5360129 13.6582912,1.99162458 L8.65,7 L13.6582912,12.0083754 C14.1139029,12.4639871 14.1139029,13.2026796 13.6582912,13.6582912 C13.2026796,14.1139029 12.4639871,14.1139029 12.0083754,13.6582912 L7,8.65 L1.99162458,13.6582912 C1.5360129,14.1139029 0.797320429,14.1139029 0.341708755,13.6582912 C-0.113902918,13.2026796 -0.113902918,12.4639871 0.341708755,12.0083754 L5.35,7 L0.341708755,1.99162458 C-0.113902918,1.5360129 -0.113902918,0.797320429 0.341708755,0.341708755 C0.797320429,-0.113902918 1.5360129,-0.113902918 1.99162458,0.341708755 L7,5.35 L12.0083754,0.341708755 C12.4639871,-0.113902918 13.2026796,-0.113902918 13.6582912,0.341708755 Z" id="🎨-Icon-Color"></path>
            </g>
        </g>
    </g>
</svg>